<?xml version="1.0" standalone="no"?>
<!DOCTYPE svg PUBLIC "-//W3C//DTD SVG 20010904//EN"
 "http://www.w3.org/TR/2001/REC-SVG-20010904/DTD/svg10.dtd">
<svg version="1.0" xmlns="http://www.w3.org/2000/svg"
 width="258.000000pt" height="223.000000pt" viewBox="0 0 258.000000 223.000000"
 preserveAspectRatio="xMidYMid meet">

<g transform="translate(0.000000,223.000000) scale(0.100000,-0.100000)"
fill="#000000" stroke="none">
<path d="M1285 1885 c-24 -23 -25 -30 -25 -142 -1 -65 -5 -163 -10 -218 -5
-55 -13 -154 -16 -220 -4 -66 -11 -128 -16 -137 -5 -10 -23 -25 -40 -34 -30
-16 -33 -16 -49 4 -9 12 -31 67 -49 124 -65 207 -181 466 -248 553 -45 60 -89
71 -136 34 -36 -29 -32 -56 27 -181 49 -104 45 -94 121 -308 30 -85 66 -186
80 -224 14 -37 26 -70 26 -71 0 -2 -11 -6 -25 -9 -14 -4 -34 -20 -44 -37 -11
-17 -29 -36 -42 -43 -46 -23 -64 -62 -64 -139 -1 -71 -2 -73 -43 -115 -53 -54
-70 -108 -46 -153 9 -19 16 -54 15 -85 -1 -83 65 -214 178 -354 50 -62 91
-117 91 -121 0 -5 146 -9 325 -9 179 0 325 4 325 8 0 5 -7 31 -15 58 -8 27
-15 87 -15 132 0 149 -20 425 -37 502 -8 41 -29 108 -45 149 -61 156 -68 206
-68 534 0 397 -15 493 -82 516 -42 15 -46 14 -73 -14z"/>
</g>
</svg>
